<mxfile host="app.diagrams.net" modified="2022-04-16T12:05:07.716Z" agent="5.0 (Windows NT 10.0; Win64; x64) AppleWebKit/537.36 (KHTML, like Gecko) Chrome/100.0.4896.88 Safari/537.36" etag="Fy16Xjm2cWPSV_SgsID8" version="17.4.5" type="github">
  <diagram id="ZLVIaOcCaGxmoJylDY0u" name="Page-1">
    <mxGraphModel dx="868" dy="482" grid="1" gridSize="10" guides="1" tooltips="1" connect="1" arrows="1" fold="1" page="1" pageScale="1" pageWidth="850" pageHeight="1100" math="0" shadow="0">
      <root>
        <mxCell id="0" />
        <mxCell id="1" parent="0" />
        <mxCell id="BlDiGNrKHUINgb3muzq_-6" value="" style="group" vertex="1" connectable="0" parent="1">
          <mxGeometry x="40" y="90" width="260" height="270" as="geometry" />
        </mxCell>
        <mxCell id="BlDiGNrKHUINgb3muzq_-5" value="Monobehaviours" style="rounded=0;whiteSpace=wrap;html=1;" vertex="1" parent="BlDiGNrKHUINgb3muzq_-6">
          <mxGeometry width="260" height="270" as="geometry" />
        </mxCell>
        <mxCell id="BlDiGNrKHUINgb3muzq_-1" value="IP_Base_Airplane_Inputs&lt;br&gt;contain key board inputs&lt;br&gt;Method: Handle Input" style="rounded=0;whiteSpace=wrap;html=1;" vertex="1" parent="BlDiGNrKHUINgb3muzq_-6">
          <mxGeometry x="50" y="30" width="155" height="60" as="geometry" />
        </mxCell>
        <mxCell id="BlDiGNrKHUINgb3muzq_-2" value="IP_XboxAirplane_Inputs&lt;br&gt;override HandleInput&lt;br&gt;method" style="rounded=0;whiteSpace=wrap;html=1;" vertex="1" parent="BlDiGNrKHUINgb3muzq_-6">
          <mxGeometry x="54" y="180" width="147" height="60" as="geometry" />
        </mxCell>
        <mxCell id="BlDiGNrKHUINgb3muzq_-8" value="" style="group" vertex="1" connectable="0" parent="1">
          <mxGeometry x="510" y="90" width="240" height="270" as="geometry" />
        </mxCell>
        <mxCell id="BlDiGNrKHUINgb3muzq_-7" value="Editors" style="rounded=0;whiteSpace=wrap;html=1;" vertex="1" parent="BlDiGNrKHUINgb3muzq_-8">
          <mxGeometry width="240" height="270" as="geometry" />
        </mxCell>
        <mxCell id="BlDiGNrKHUINgb3muzq_-3" value="Base Input Editor" style="rounded=0;whiteSpace=wrap;html=1;" vertex="1" parent="BlDiGNrKHUINgb3muzq_-8">
          <mxGeometry x="60" y="27.931034482758623" width="120" height="55.862068965517246" as="geometry" />
        </mxCell>
        <mxCell id="BlDiGNrKHUINgb3muzq_-4" value="Xbox Input Editor" style="rounded=0;whiteSpace=wrap;html=1;" vertex="1" parent="BlDiGNrKHUINgb3muzq_-8">
          <mxGeometry x="60" y="167.58620689655174" width="120" height="55.862068965517246" as="geometry" />
        </mxCell>
      </root>
    </mxGraphModel>
  </diagram>
</mxfile>
